<svg width="59" height="56" viewBox="0 0 59 56" fill="none" xmlns="http://www.w3.org/2000/svg">
<path d="M2.81396 0.0692749C1.22859 0.0692749 0 1.51188 0 3.25856V47.108C0 48.8547 1.22859 50.3404 2.81396 50.3404H55.936C57.5214 50.3404 58.75 48.8547 58.75 47.108V3.25856C58.75 1.51188 57.5214 0.0692749 55.936 0.0692749H2.81396ZM6.69629 6.40481H54.686C55.1693 6.40481 55.5 6.86604 55.5 7.3985V12.7917V42.9684C55.5057 43.0879 55.4885 43.2074 55.4496 43.3191C55.4108 43.4309 55.351 43.5324 55.2743 43.6171C55.1976 43.7018 55.1056 43.7678 55.0043 43.8109C54.9029 43.8539 54.7945 43.8731 54.686 43.8671H6.69629C6.58742 43.8733 6.47857 43.8543 6.37675 43.8114C6.27493 43.7685 6.18238 43.7026 6.10504 43.6179C6.0277 43.5333 5.96728 43.4317 5.92766 43.3198C5.88805 43.2079 5.87011 43.0881 5.875 42.9681V7.3985C5.875 6.86604 6.21254 6.40481 6.69629 6.40481ZM7.625 8.33302V41.9389H53.75V38.4957H47.1555C46.6723 38.4957 46.25 38.1071 46.25 37.5746V29.5425C46.2569 29.2834 46.3555 29.0377 46.5247 28.8577C46.694 28.6777 46.9203 28.5777 47.1555 28.5792H53.75V21.8305H47.1555C46.9164 21.8222 46.6892 21.7133 46.5207 21.5261C46.3523 21.3389 46.2554 21.0877 46.25 20.8241V12.7917C46.2551 12.5272 46.3517 12.2748 46.52 12.0861C46.6883 11.8974 46.9156 11.7866 47.1555 11.7762H53.75V8.33302H7.625ZM48 13.7044V19.9023H53.75V13.7044H48ZM26.8511 17.3056C27.023 17.3084 27.1904 17.3669 27.3323 17.4739C27.4743 17.5809 27.5844 17.7316 27.6491 17.9072C27.7137 18.0828 27.73 18.2754 27.6958 18.4611C27.6617 18.6468 27.5786 18.8173 27.457 18.9513L25.6072 20.9898C26.4579 22.2058 26.9193 23.698 26.9193 25.2333C26.9193 26.7687 26.4579 28.2608 25.6072 29.4768L27.3684 31.4163C27.5325 31.5972 27.6247 31.8424 27.6247 32.0981C27.6247 32.3539 27.5325 32.5991 27.3684 32.7799C27.2043 32.9607 26.9817 33.0623 26.7496 33.0623C26.5175 33.0623 26.295 32.9607 26.1309 32.7799L24.3586 30.827C23.255 31.7249 21.9159 32.2023 20.5441 32.187C19.1722 32.1716 17.8422 31.6642 16.7554 30.7417L14.9053 32.7802C14.7406 32.9577 14.5189 33.0565 14.2885 33.0551C14.0581 33.0537 13.8375 32.9522 13.6745 32.7727C13.5116 32.5931 13.4195 32.35 13.4183 32.0961C13.4171 31.8422 13.5068 31.5981 13.668 31.4166L15.5283 29.3666C14.7265 28.1693 14.2938 26.7204 14.2938 25.2324C14.2938 23.7444 14.7265 22.2955 15.5283 21.0982L13.6682 19.0484C13.5869 18.9589 13.5225 18.8526 13.4785 18.7356C13.4345 18.6187 13.4119 18.4933 13.4119 18.3667C13.4119 18.24 13.4345 18.1147 13.4785 17.9977C13.5225 17.8807 13.5869 17.7744 13.6682 17.6849C13.7495 17.5953 13.8459 17.5243 13.9521 17.4758C14.0583 17.4274 14.1721 17.4024 14.287 17.4024C14.4019 17.4024 14.5157 17.4274 14.6219 17.4758C14.728 17.5243 14.8245 17.5953 14.9058 17.6849L16.7559 19.7231C17.8427 18.8007 19.1727 18.2934 20.5445 18.278C21.9164 18.2626 23.2555 18.7399 24.3591 19.6378L26.2197 17.5878C26.3025 17.4966 26.401 17.4247 26.5095 17.3762C26.6179 17.3277 26.7341 17.3037 26.8511 17.3056ZM20.6204 20.2052C20.0212 20.2042 19.4277 20.3332 18.8739 20.585C18.32 20.8367 17.8165 21.2062 17.3922 21.6723C16.9679 22.1384 16.6311 22.6921 16.401 23.3016C16.1709 23.9112 16.052 24.5647 16.0511 25.2249C16.0503 25.885 16.1674 26.5389 16.3959 27.1492C16.6243 27.7595 16.9597 28.3142 17.3827 28.7817C17.8058 29.2492 18.3082 29.6203 18.8615 29.8739C19.4147 30.1274 20.0078 30.2584 20.6069 30.2594C21.6974 30.2623 22.7522 29.8315 23.5774 29.0462C23.6655 28.8451 23.8152 28.6846 24 28.5929C24.5887 27.8713 24.9752 26.9775 25.1131 26.0192C25.2509 25.0609 25.1342 24.0792 24.7769 23.1924C24.4196 22.3056 23.837 21.5517 23.0995 21.0217C22.3619 20.4916 21.5009 20.208 20.6204 20.2052ZM48 30.5074V36.5675H53.75V30.5074H48ZM6.625 52.2686V55.4363H17.125V52.2686H6.625ZM41.625 52.2686V55.4363H52.125V52.2686H41.625Z" fill="#FABF01"/>
</svg>
