<svg width="50" height="47" viewBox="0 0 50 47" fill="none" xmlns="http://www.w3.org/2000/svg">
<path d="M24 0.476562C15.7773 0.777846 8.57031 4.76338 4.25 10.703C4.98047 10.5007 5.76172 10.4318 6.5625 10.4964C9.71875 10.7589 12.5156 13.0099 14.1562 15.3169C16.3125 12.5666 19.8906 10.6599 24 10.3931V0.476562ZM26 0.476562V10.3931C30.1094 10.6599 33.6875 12.5666 35.8438 15.3169C37.4844 13.0099 40.3125 10.7589 43.4688 10.4964C44.2695 10.4318 45.0195 10.5007 45.75 10.703C41.4297 4.76338 34.2227 0.777846 26 0.476562ZM5.75 12.6656C4.26172 12.7345 2.97266 13.4791 1.90625 14.9037C1.875 14.9467 1.81641 14.9726 1.78125 15.007C0.632813 17.6583 0 20.5549 0 23.5806C0 30.3122 3.12109 36.3938 8.09375 40.6246C7.77734 36.9748 9.03125 34.2719 10.25 32.5675C11.5352 30.7684 13.3398 29.3653 15.1875 28.6078C13.2031 26.6709 12 24.1445 12 21.377C12 19.905 12.3516 18.4933 12.9688 17.2107C11.6953 15.1146 9.0625 12.8851 6.40625 12.6656C6.1875 12.6484 5.96094 12.657 5.75 12.6656ZM43.5938 12.6656C40.9375 12.8851 38.3008 15.1103 37.0312 17.2107C37.6484 18.489 38 19.905 38 21.377C38 24.1488 36.7734 26.6709 34.7812 28.6078C36.6289 29.361 38.4609 30.7684 39.75 32.5675C40.9688 34.2719 42.2227 36.9748 41.9062 40.6246C46.8789 36.3938 50 30.3122 50 23.5806C50 20.5549 49.3672 17.6583 48.2188 15.007C48.1836 14.9726 48.125 14.9467 48.0938 14.9037C46.875 13.2768 45.3711 12.5236 43.5938 12.6656ZM17.2812 30.2261C15.5938 30.48 13.3633 31.7454 11.8125 33.9103C10.6602 35.52 9.48047 38.2445 10.3438 42.0364C10.3633 42.131 10.3438 42.2214 10.3438 42.3118C14.4609 45.0793 19.5352 46.7191 25 46.7191C30.4648 46.7191 35.5391 45.0793 39.6562 42.3118C39.6562 42.2214 39.6367 42.131 39.6562 42.0364C40.5234 38.2445 39.3398 35.52 38.1875 33.9103C36.6328 31.7368 34.3789 30.5317 32.6875 30.2605C30.5352 31.6034 27.8789 32.3953 25 32.3953C22.1133 32.3953 19.4375 31.5775 17.2812 30.2261Z" fill="#FABF01"/>
</svg>
