<svg width="40" height="56" viewBox="0 0 40 56" fill="none" xmlns="http://www.w3.org/2000/svg">
<path d="M20 0.0692749C13.014 0.0692749 7.36842 6.35591 7.36842 14.1352V19.996H3.15789C1.36924 19.996 0 21.5208 0 23.5125V51.6444C0 53.6362 1.36924 55.1609 3.15789 55.1609H36.8421C38.6308 55.1609 40 53.6362 40 51.6444V23.5125C40 21.5208 38.6308 19.996 36.8421 19.996H32.6316V14.1352C32.6316 6.35591 26.986 0.0692749 20 0.0692749ZM20 2.4136C25.8594 2.4136 30.5263 7.61049 30.5263 14.1352V19.996H9.47368V14.1352C9.47368 7.61049 14.1406 2.4136 20 2.4136ZM20 31.7177C21.7887 31.7177 23.1579 33.2424 23.1579 35.2342C23.1579 36.2873 22.7385 37.2122 22.1053 37.7983V41.095C22.1053 42.3862 21.1595 43.4393 20 43.4393C18.8405 43.4393 17.8947 42.3862 17.8947 41.095V37.7983C17.2615 37.2122 16.8421 36.2873 16.8421 35.2342C16.8421 33.2424 18.2113 31.7177 20 31.7177Z" fill="#FABF01"/>
</svg>
